<svg id="LOGO" xmlns="http://www.w3.org/2000/svg" width="124.193" height="100" viewBox="0 0 124.193 100">
  <g id="Group_2" data-name="Group 2" transform="translate(17.921)">
    <g id="Group_1" data-name="Group 1" transform="translate(0)">
      <path id="Path_1" data-name="Path 1" d="M51.613,43.841v67.011c0,5.295.68,7.333,2.308,10.166l.092.16.1.151a50.349,50.349,0,0,0,83.907,0l.1-.152.091-.16c1.627-2.83,2.308-4.869,2.308-10.166V43.841Z" transform="translate(-51.613 -43.841)" fill="#fff" fill-rule="evenodd"/>
    </g>
  </g>
  <path id="Path_2" data-name="Path 2" d="M138.56,85.173v-37.4H55.545v64.062c0,4.855.584,6.379,1.917,8.7l.041.072.046.068a47.4,47.4,0,0,0,79.009,0l.046-.067.041-.072c1.332-2.317,1.916-3.84,1.916-8.7V85.173Zm-2.405,15.181v11.482c0,4.568-.53,5.645-1.6,7.5a45,45,0,0,1-75.013,0c-1.065-1.854-1.6-2.93-1.6-7.5V50.179h78.2v50.175Z" transform="translate(-34.677 -44.826)" fill="#001d46"/>
  <path id="Path_3" data-name="Path 3" d="M139.829,84.947V45.232H53V111.2c0,5.292.695,7.08,2.17,9.646l.074.128.082.123a49.307,49.307,0,0,0,82.175,0l.082-.123.074-.128c1.474-2.565,2.169-4.353,2.169-9.646V84.947Zm-1.334,18.927V111.2c0,5-.606,6.573-1.992,8.981l-.05.088-.057.085a47.972,47.972,0,0,1-79.958,0l-.057-.085-.05-.088c-1.386-2.41-1.992-3.988-1.992-8.981V46.566h84.157v57.308Z" transform="translate(-34.04 -44.189)" fill="#001d46" fill-rule="evenodd"/>
  <path id="Path_4" data-name="Path 4" d="M132.116,54.142V71.611h3.24V54.142ZM78.845,60.578A5.693,5.693,0,1,0,83.9,69.207l-2.7-1.273a2.271,2.271,0,0,1-2.084,1.293,2.195,2.195,0,0,1-2.262-2.12c0-.076-.031-.046-.022-.118l7.345,0a6.962,6.962,0,0,0,.032-.714C84.262,62.6,81.88,60.578,78.845,60.578Zm-2,4.457a2.032,2.032,0,1,1,4.063,0Zm-3.781-5.447a4.957,4.957,0,0,0-4.883-5.028c-.082,0-.459,0-.541.006h-5.68V71.586h3.448V57.5l2.057-.018a2.211,2.211,0,0,1,2.24,2.228A2.267,2.267,0,0,1,67.4,61.937l-.8.019V66.01l3.444,5.576H74.1l-4.762-7.113A5,5,0,0,0,73.062,59.588Zm48.13,7.7a1.9,1.9,0,0,1-3.8,0V61.154h-3.3v6.788c0,2.3,2.322,4.161,5.188,4.161s5.19-1.863,5.19-4.161V61.154h-3.278Zm5.446,4.321h3.24V54.142h-3.24Zm-16.507-9.333a4.648,4.648,0,0,0,1.428-3.323,4.592,4.592,0,0,0-1.167-3.069c-.773-.9-2.141-1.3-3.99-1.3h-5.54V71.6h7.154a4.983,4.983,0,0,0,4.95-4.917A4.374,4.374,0,0,0,110.131,62.278Zm-2.714,6.338h-3.1V57.528h2.163a1.814,1.814,0,0,1,0,3.622h-1.125v3.074h2.063a2.2,2.2,0,0,1,0,4.391ZM93.5,54.012l.014,8.238a4.814,4.814,0,0,0-3.376-1.4,5.442,5.442,0,0,0,0,10.851,4.8,4.8,0,0,0,3.392-1.439V71.6H96.87l0-17.588ZM91.1,69.041a2.673,2.673,0,1,1,2.465-2.665A2.572,2.572,0,0,1,91.1,69.041Z" transform="translate(-36.283 -46.389)" fill="#d2003c"/>
  <path id="Path_5" data-name="Path 5" d="M126.225,99.352A23.229,23.229,0,1,1,103,76.123a23.231,23.231,0,0,1,23.229,23.229" transform="translate(-40.744 -51.927)" fill="#fc0" fill-rule="evenodd"/>
  <g id="Group_7" data-name="Group 7" transform="translate(0 30.671)">
    <g id="Group_3" data-name="Group 3" transform="translate(0 0)">
      <path id="Path_6" data-name="Path 6" d="M173.105,115.189l0-.009c-.026-.057-.064-.139-.082-.184-.024-.121-.042-.264-.061-.414l0-.023a4.014,4.014,0,0,0-.249-1.1,1.945,1.945,0,0,0-1.4-1.1,1.383,1.383,0,0,0-.218-.529,4.948,4.948,0,0,0-1.384-1.219c-.118-.079-.253-.168-.3-.211l-.117-.09a1.558,1.558,0,0,0-.981-.342,2.216,2.216,0,0,0-1.622.863c-.067-.174-.177-.58-.239-.811-.086-.316-.167-.615-.252-.848l-.012-.032c-.011-.028-.022-.057-.037-.1a2.2,2.2,0,0,0-1.638-1.6,7.15,7.15,0,0,0-.864-.073,1.87,1.87,0,0,1-.818-.15c.014-.048.041-.124.09-.244a4.869,4.869,0,0,0,.226-.674,6.583,6.583,0,0,0,.2-2.862,6.019,6.019,0,0,0,.837.064,6.942,6.942,0,0,0,2.691-.552l.046-.021a5.425,5.425,0,0,0,3.153-4.873l0-.064c-.187-1.961-1.281-3.816-3.329-5.649a5.024,5.024,0,0,0,1.619-.681,4.639,4.639,0,0,0,1.757-4.892l-.031-.142a1.3,1.3,0,0,0-1.273-1.168,1.285,1.285,0,0,0-.869.348c-.049.045-.1.093-.154.145a2.366,2.366,0,0,1-.379.317,4.457,4.457,0,0,1-1.269.387,9.748,9.748,0,0,0-1.191.305,5.038,5.038,0,0,0-3.449,2.947,3.372,3.372,0,0,0,.329,2.659l.037.064a12.9,12.9,0,0,0,2.053,2.316,6.115,6.115,0,0,1,2.117,2.924c.032.2.093.557-.562,1.052a2.128,2.128,0,0,1-1.017.224,3.886,3.886,0,0,1-1.753-.44l-.028-.014a23.16,23.16,0,0,1-2.416-1.479,17.043,17.043,0,0,0-4.131-2.237,10.368,10.368,0,0,0-2.122-.6,5.251,5.251,0,0,1-2.2-.773l-.079-.057c-.244-.16-.5-.341-.74-.518a8.018,8.018,0,0,0-2.585-1.408,6,6,0,0,0-1.058-.223,1.8,1.8,0,0,1-.768-.2c-.164-.118-.33-.238-.5-.36l-.025-.019a15.557,15.557,0,0,0-2.165-1.408,16.643,16.643,0,0,0-4.024-1.268c-.075-.017-.271-.256-.4-.415a4.335,4.335,0,0,0-.85-.845,6.23,6.23,0,0,0-3.942-1.626c-.147,0-.3.006-.425.017a4.252,4.252,0,0,0-2.377,1.183c-1.207,1.056-2.52,2.007-3.79,2.926a36.709,36.709,0,0,0-5.775,4.832,14.22,14.22,0,0,0-3.132,6.435c-.086.3-.172.608-.265.926-.162.583-.31,1.177-.453,1.755-.73,2.933-1.42,5.7-4.16,7.482a1.365,1.365,0,0,0-.623,1.294,1.4,1.4,0,0,0,.9,1.151,3.2,3.2,0,0,0,1.052.169,1.341,1.341,0,0,0,.326.812,1.593,1.593,0,0,0,1.189.522h.048a6.292,6.292,0,0,0,4.391-2.209,3.558,3.558,0,0,0,1.62.885l.187.036.206-.024a10.265,10.265,0,0,1,1.891-.143c.555.173,1.122.387,1.687.6.432.162.878.33,1.333.484l.225.07.2-.008a2.879,2.879,0,0,0,2.189-1.546l.05-.079.037-.086a2.168,2.168,0,0,0,.1-.292l0,.01.075.261a4.158,4.158,0,0,0,.7,1.606,1.755,1.755,0,0,0,1.374.621h0a3.255,3.255,0,0,0,.52-.049l.063-.009.058.062a2.4,2.4,0,0,0,1.074.744c.5.167,1.009.3,1.507.43a16.709,16.709,0,0,1,1.791.541l.064.022a4.432,4.432,0,0,0,1.447.273,2.553,2.553,0,0,0,1.712-.648,3.118,3.118,0,0,0,1.106-1.733,2.277,2.277,0,0,0,.371-.093c.84-.279,1.661-1.823,1.668-1.838a3.453,3.453,0,0,1,.184-.305,1.722,1.722,0,0,0,.306-.983,1.474,1.474,0,0,0-1.453-1.465l-.132,0c-.067,0-1.646-.007-2.1,0l-.039,0a2.092,2.092,0,0,0-.543.1c-.01-.013-.018-.026-.029-.039-.121-.148-.25-.487-.423-.573.013-.01.048-.02.061-.031l.441.047a8.593,8.593,0,0,0,.86.043,15.462,15.462,0,0,0,2.8-.324,13.128,13.128,0,0,1,2.348-.064c.079,0,.16,0,.244,0h.043c.339,0,.677.03,1.044.063s.785.071,1.213.071c.154,0,.3-.005.444-.014a4.446,4.446,0,0,0,1.156-.205c.034.2.079.438.137.738l.058.248a4.7,4.7,0,0,0,2.1,3.251l.238.155a4.75,4.75,0,0,0,2.281.94,3.612,3.612,0,0,0,1.143-.049,5.3,5.3,0,0,1,4.173.965l.108.07a3.045,3.045,0,0,1,.375.29,3.749,3.749,0,0,0,1.118.717,2.749,2.749,0,0,0,1,.19h.024a2.428,2.428,0,0,0,1.322-.36l0,0c.044.059.092.126.133.184a5.674,5.674,0,0,0,.787.934,2.879,2.879,0,0,0,2.075.715c.268,0,.525-.018.75-.034l.254-.013c.158-.007.3-.016.4-.027a2.731,2.731,0,0,0,.334-.058,1.288,1.288,0,0,0,.742.244,1.266,1.266,0,0,0,.354-.051l1.315-.432a1.334,1.334,0,0,0,.826-.731A1.955,1.955,0,0,0,173.105,115.189Zm-41.452-6.523-.1-.151c-.04-.061-.082-.123-.133-.2a4.12,4.12,0,0,1-.448-.769c.394.039.814.079,1.247.1Z" transform="translate(-49.234 -84.886)" fill="#fff"/>
      <path id="Path_7" data-name="Path 7" d="M87.408,110.272l-.69-.345A4.779,4.779,0,0,1,85.3,108.19c-.2-.334-.4-.678-.63-.995a4.686,4.686,0,0,0-.759-.8c-.043-.038-.1-.088-.145-.131a26.113,26.113,0,0,1-1.719-6.994,6.994,6.994,0,0,0-.836-2.457l-.014-.024a53.424,53.424,0,0,0-4.074-5.274c-.1-.109-.216-.22-.314-.316l-.072-.07-4.874-4.055-.073-.055a7.581,7.581,0,0,0-2.2-1.175,6.262,6.262,0,0,0-4.253.148l-.082.039c-.423.224-.815.474-1.2.72a8.086,8.086,0,0,1-1.689.909l-.1.04a14.112,14.112,0,0,1-1.55.546,8.741,8.741,0,0,0-3.538,1.751c-.264.242-.48.447-.663.618a8.09,8.09,0,0,1-.61.548c-.028,0-.088.007-.209.007a6.635,6.635,0,0,0-4.536,1.578l-.045.039a7.979,7.979,0,0,1-2.493,1.745,5.872,5.872,0,0,1-1.284.222l-.049,0a9.124,9.124,0,0,0-1.785.279,10.791,10.791,0,0,0-3.808,2.2c-.478.372-.788.6-.919.69-.1.062-.212.135-.306.19a6.879,6.879,0,0,1-3.444,1.293h-.061a1.822,1.822,0,0,1-1.523-1.132,2.245,2.245,0,0,1,.673-2.2c.411-.411.9-.825,1.369-1.225A14.013,14.013,0,0,0,39.7,92.672a3.538,3.538,0,0,0-.211-4.319,6.659,6.659,0,0,0-3.3-1.575l-.094-.023c-.053-.014-.128-.027-.2-.039l-.066-.013-.371-.068c-.214-.038-.417-.074-.611-.121a4.392,4.392,0,0,1-1.186-.664,10.052,10.052,0,0,0-.942-.6l-.905-.487-.561.861a3.485,3.485,0,0,0-.545,2.234l.006.061a5.237,5.237,0,0,0,2.892,3.812l.034.015c.052.022.106.043.16.062a3.247,3.247,0,0,0,.993.232,16.868,16.868,0,0,0-2.3,2.243,5.7,5.7,0,0,0-.821,5.577,5.929,5.929,0,0,0,4.744,3.571,6.133,6.133,0,0,0,.952.072,8.218,8.218,0,0,0,1.606-.175v.021a14.265,14.265,0,0,0,.121,1.629,10.582,10.582,0,0,0,.633,1.91l.02.049a5.569,5.569,0,0,1-1.215.55c-.316.037-.658.056-.91.069-.175.009-.314.018-.386.026a1.691,1.691,0,0,0-.988.466,4.557,4.557,0,0,0-.841,1.6c-.115.294-.233.6-.347.845a1.755,1.755,0,0,1-.379.395,2.713,2.713,0,0,0-.716-.769h0l-.032-.025a1.582,1.582,0,0,0-1.841-.034l-.25.166-.067.045a12.3,12.3,0,0,0-1.176.852,1.819,1.819,0,0,0-.573.974,1.311,1.311,0,0,0-.3.077,2.484,2.484,0,0,0-1.475,1.831,8.914,8.914,0,0,1-.1.948c-.01.013-.031.037-.068.079a1.465,1.465,0,0,0-.008,1.981,5.436,5.436,0,0,0,2.19.794h.073l.186-.025.084-.025a1.32,1.32,0,0,0,.258-.1l.349.032a5.794,5.794,0,0,1,.649.117,6.142,6.142,0,0,0,1.325.183,2.932,2.932,0,0,0,1.408-.34,3.349,3.349,0,0,0,1.412-1.488c.079-.136.16-.276.239-.386l.124.033a3.7,3.7,0,0,0,.75.139,4.4,4.4,0,0,0,2.82-1.043c.208-.164.405-.349.585-.516a5.6,5.6,0,0,1,.585-.5,2.065,2.065,0,0,1,.751-.113,9.338,9.338,0,0,1,1.631.2,4.271,4.271,0,0,0,3.086-.348c.466-.265.935-.51,1.312-.708l.064-.034c.207-.109.389-.2.534-.285a5.506,5.506,0,0,0,1.945-2.329c.2-.391.494-1.121.575-1.324.08,0,.163.007.248.007h0a11.146,11.146,0,0,0,1.706-.179c.365-.058.711-.112.974-.124l.046,0c.1-.009.21-.013.317-.013.53,0,1.3.063,1.877.127.483.054.81.1,1.448.13.086,0,.179.011.277.02.2.016.432.035.681.035a3.6,3.6,0,0,0,1.611-.367c.123.12.326.4.462.521h-.061a1.452,1.452,0,0,0-1.06.448,3.266,3.266,0,0,0-1.5-.129,14.13,14.13,0,0,0-1.87.286,1.35,1.35,0,0,0-1.031.776,1.565,1.565,0,0,0,.078,1.42c.333.6.654,1.133.993,1.7l.149.251a1.481,1.481,0,0,0,1.353.7c.1,0,.211-.007.334-.015l.034,0,.064.114a4.374,4.374,0,0,0,1.091,1.415,3.216,3.216,0,0,0,2.075.734,3.329,3.329,0,0,0,1-.151,26.933,26.933,0,0,0,4.309-1.654h.184l.115-.006c.09-.01.181-.016.274-.023a2.928,2.928,0,0,0,2.063-.789l.061-.064.049-.073c.256-.371.491-.743.71-1.121.01.043.022.088.036.136l.01.03a2.24,2.24,0,0,0,2.168,1.4h.049a8.343,8.343,0,0,0,2.512-.606l.05-.018c.1-.037.206-.075.312-.112l.073-.028a4.36,4.36,0,0,1,2.336-.121l.125.02.127-.008a4.336,4.336,0,0,0,2.474-1.094,6.208,6.208,0,0,0,4.68,1.97c.067,0,.136,0,.209,0l.3-.022.084-.019a1.347,1.347,0,0,0,1.076-1.21,1.323,1.323,0,0,0-.013-.349,3.218,3.218,0,0,0,.334-.055,1.39,1.39,0,0,0,1.094-1.139A1.307,1.307,0,0,0,87.408,110.272Zm-16.1-3.1-.165.151a6.159,6.159,0,0,0-1,1.089c-.219-.368-.365-.638-.483-.885a5.566,5.566,0,0,0,1.4-.4c.088,0,.174-.006.259-.012Z" transform="translate(-27.702 -84.762)" fill="#fff"/>
    </g>
    <g id="Group_4" data-name="Group 4" transform="translate(1.119 1.472)">
      <path id="Path_8" data-name="Path 8" d="M74.385,120.084c-.034-.057-.071-.122-.109-.2a3.387,3.387,0,0,1-.235-.647c-.115-.4-.214-.75-.648-.687a12.954,12.954,0,0,1-1.89.13c-.009,0-.218,0-.283.147-.074.169.094.325.274.49a1.913,1.913,0,0,1,.28.3,4.8,4.8,0,0,1,.358.695c.181.4.338.748.523.806a.876.876,0,0,0,.258.035,2.585,2.585,0,0,0,1.417-.553C74.567,120.393,74.49,120.264,74.385,120.084Z" transform="translate(-39.718 -94.695)" fill="#d2003c"/>
      <path id="Path_9" data-name="Path 9" d="M34.407,119.732l-.034-.027a.465.465,0,0,0-.514.018l-.324.216a11.353,11.353,0,0,0-1.079.78.778.778,0,0,0-.225.5.419.419,0,0,0,.067.3c.031.034.306.341.364.39a.678.678,0,0,0,.439.175.819.819,0,0,0,.369-.1,4.655,4.655,0,0,0,1.383-1.644C34.926,120.146,34.7,119.963,34.407,119.732Z" transform="translate(-29.955 -94.969)" fill="#d2003c"/>
      <path id="Path_10" data-name="Path 10" d="M31.449,123.431c-.137-.195-.594-.729-.85-.729a.174.174,0,0,0-.063.012,1.445,1.445,0,0,0-.785.88c-.089,1.2-.123,1.325-.451,1.692-.091.1-.154.338-.049.443a7.391,7.391,0,0,0,1.4.466l.026,0c.106-.031.193-.3.431-1.128.129-.444.274-.949.437-1.406C31.554,123.628,31.556,123.583,31.449,123.431Zm-.8,2.7h0v0Z" transform="translate(-29.196 -95.738)" fill="#d2003c"/>
      <path id="Path_11" data-name="Path 11" d="M88.1,111.764l-.726-.362a5.549,5.549,0,0,1-1.837-2.143c-.189-.316-.384-.642-.6-.941a3.863,3.863,0,0,0-.582-.6,1.822,1.822,0,0,1-.385-.4,27.581,27.581,0,0,1-1.85-7.475,5.946,5.946,0,0,0-.688-1.979A52.467,52.467,0,0,0,77.5,92.773c-.093-.1-.195-.2-.283-.283l-.072-.07L72.34,88.424a6.54,6.54,0,0,0-1.937-1.04,4.506,4.506,0,0,0-1.512-.245,4.974,4.974,0,0,0-1.919.37c-.383.2-.756.441-1.118.672a9,9,0,0,1-1.939,1.029,14.806,14.806,0,0,1-1.677.594,7.755,7.755,0,0,0-3.112,1.507c-.259.238-.472.439-.651.608-.825.778-.911.86-1.588.86A5.526,5.526,0,0,0,53.058,94.1a8.842,8.842,0,0,1-2.878,1.974,6.844,6.844,0,0,1-1.554.28,8.341,8.341,0,0,0-1.68.259,9.972,9.972,0,0,0-3.373,2c-.335.261-.784.606-1,.744-.109.07-.243.154-.351.217a7.815,7.815,0,0,1-4.009,1.446h-.112A2.943,2.943,0,0,1,35.562,99.1a3.362,3.362,0,0,1,.953-3.32c.443-.443.947-.872,1.435-1.286A13.16,13.16,0,0,0,39.994,92.5a2.439,2.439,0,0,0-.14-2.9,6.056,6.056,0,0,0-2.739-1.243l-.1-.025c-.055-.013-.156-.025-.208-.038-.358-.07-.7-.119-1.051-.205a12,12,0,0,1-2.377-1.361,2.406,2.406,0,0,0-.366,1.544,4.1,4.1,0,0,0,2.248,2.936c.046.019.093.037.14.055a2.644,2.644,0,0,0,1.062.17l.223,0,.222,0a2.839,2.839,0,0,1,.7.058.654.654,0,0,1,.465.537c.018.158-.054.281-.256.438-.185.156-.373.31-.56.465a18.883,18.883,0,0,0-2.727,2.58,4.592,4.592,0,0,0-.62,4.457,4.788,4.788,0,0,0,3.855,2.853,5.026,5.026,0,0,0,.793.061,10.1,10.1,0,0,0,2.472-.406.308.308,0,0,1,.075-.011c.037,0,.1,0,.118.182.024.353.042.755.059,1.142.029.631.056,1.228.1,1.479a9.787,9.787,0,0,0,.57,1.695c.078.191.14.343.161.417a.7.7,0,0,1-.166.692,5.664,5.664,0,0,1-2.048,1.019c-.363.045-.747.066-1.028.08-.143.007-.256.013-.316.021a.557.557,0,0,0-.337.157,4.512,4.512,0,0,0-.578,1.207c-.131.337-.267.684-.4.973a4.249,4.249,0,0,1-1.649,1.37c-.156.09-.31.179-.459.272l-.018.018a4.891,4.891,0,0,1-.842,1.082,1.505,1.505,0,0,1-.9.331l-.022,0-.015.017a4.316,4.316,0,0,0-.793,2.012c-.023.109-.046.219-.071.328l-.02.1.064.006a6.713,6.713,0,0,1,.784.138,5.239,5.239,0,0,0,1.088.157,1.8,1.8,0,0,0,.9-.218,2.3,2.3,0,0,0,.953-1.052,3.421,3.421,0,0,1,.546-.767.624.624,0,0,1,.493-.211,2.354,2.354,0,0,1,.572.1,2.75,2.75,0,0,0,.53.1,3.313,3.313,0,0,0,2.066-.8c.174-.137.346-.3.514-.456a5.6,5.6,0,0,1,.812-.673,2.948,2.948,0,0,1,1.288-.247,10.5,10.5,0,0,1,1.874.23,3.485,3.485,0,0,0,.89.116,2.841,2.841,0,0,0,1.4-.345c.478-.271.958-.522,1.344-.724.226-.118.423-.223.581-.309a4.74,4.74,0,0,0,1.483-1.851c.2-.4.55-1.272.553-1.281l.016-.04-.8-.61-.033.055a13.353,13.353,0,0,1-.869,1.272c-1.408,1.92-3.7,2.165-5.544,2.165-.127,0-.254-.007-.381-.007a6.973,6.973,0,0,0-5.463,2.276.148.148,0,0,1-.218.022.191.191,0,0,1-.019-.164,1.122,1.122,0,0,1,.151-.379c1.429-2.027,3.865-2.327,5.83-2.363a8.537,8.537,0,0,0,3.427-.817,5.381,5.381,0,0,0,2.394-2.976,13.221,13.221,0,0,0,.441-2.138,15.661,15.661,0,0,1,.315-1.686.175.175,0,0,1,.162-.115.168.168,0,0,1,.058.012c.075.012.216.067.217.176a7.359,7.359,0,0,0,.041,3.915,1.514,1.514,0,0,0,1.546.75,10.208,10.208,0,0,0,1.531-.164,10.534,10.534,0,0,1,1.1-.137c.136-.012.275-.018.416-.018a9.4,9.4,0,0,1,1.854.244,10.75,10.75,0,0,0,1.613.24c.1,0,.2.013.313.022.192.016.39.031.591.031a1.581,1.581,0,0,0,1.04-.289c.169-.138.109-.344.034-.6l-.013-.046c-.013-.044-.028-.094-.044-.146-.107-.345-.269-.867,0-1.107a.254.254,0,0,1,.148-.049.12.12,0,0,1,.126.082c.03.1.059.2.088.3a3.722,3.722,0,0,0,.509,1.217,7.694,7.694,0,0,0,2.506,1.958,3.319,3.319,0,0,1,1.6,2.4c0,.508-.492.863-.859,1.084a5.166,5.166,0,0,1-2.036.611,1.344,1.344,0,0,1-.7-.273c-.563-.516-.5-.694-.865-1.309a6.888,6.888,0,0,0-.651-.962,1.547,1.547,0,0,0-1.387-.488,13.212,13.212,0,0,0-1.734.288.386.386,0,0,0-.281.217.459.459,0,0,0,.033.414c.326.581.643,1.113.979,1.676l.149.251a.426.426,0,0,0,.392.154c.076,0,.16-.006.248-.012s.19-.013.286-.013a.7.7,0,0,1,.6.218c.1.153.191.319.28.478a3.326,3.326,0,0,0,.824,1.1,2.078,2.078,0,0,0,1.365.48,2.206,2.206,0,0,0,.663-.1,24.827,24.827,0,0,0,4.368-1.705H68c.1-.01.2-.019.307-.026a1.9,1.9,0,0,0,1.334-.444,15.477,15.477,0,0,0,1.166-1.992,1.712,1.712,0,0,0,.007-1.7,12.026,12.026,0,0,1-1.41-2.766l-.01-.027-.028-.008c-.106-.031-.21-.072-.311-.112a1.89,1.89,0,0,0-.706-.175h-.034a.638.638,0,0,0-.6.275l-.013.026,1.612,3.182a1.443,1.443,0,0,1,.16.872,5.6,5.6,0,0,1-1.092,1.775.278.278,0,0,1-.139.058c-.02,0-.1-.017-.048-.2a8.391,8.391,0,0,0,.289-2.12A19.8,19.8,0,0,0,67.02,108.2l-.025-.04a1.98,1.98,0,0,1-.405-1.106.441.441,0,0,1,.3-.371,4.871,4.871,0,0,1,.7-.175c.573-.126,1.167-.256,1.378-.577a8.639,8.639,0,0,0,1.285-3.426c.011-.063.055-.181.145-.181.052,0,.1.018.126.14a5.155,5.155,0,0,1-.881,3.867.427.427,0,0,0-.057.308.389.389,0,0,0,.147.205A3.1,3.1,0,0,0,72,106.5a8.584,8.584,0,0,0,1.788-.205c.181-.034.361-.067.539-.1a.241.241,0,0,1,.112.124,3.931,3.931,0,0,0-.925,1.917c-.133.136-.282.272-.426.4a2.708,2.708,0,0,0-1.119,1.708.251.251,0,0,0,.25.266.652.652,0,0,0,.269-.075.642.642,0,0,1,.279-.07.181.181,0,0,1,.154.17l-.6.878a1.411,1.411,0,0,0-.038,1.135c.067.21.037.372.094.555a1.158,1.158,0,0,0,1.11.647,7.362,7.362,0,0,0,2.183-.541l.371-.133a5.387,5.387,0,0,1,2.96-.2,4.141,4.141,0,0,0,2.389-1.317,1.39,1.39,0,0,1,.929.528,5.067,5.067,0,0,0,3.907,1.662l.18,0,.161-.013c.165-.039.208-.119.217-.223.011-.125-.085-.246-.262-.331l-.888-.472a3.686,3.686,0,0,1-1.7-1.711,9.406,9.406,0,0,0-.979-2.06c-.062-.1-.132-.2-.206-.307a3.986,3.986,0,0,1-.346-.561l0,0a4.128,4.128,0,0,1,2.163,2.256,3.779,3.779,0,0,0,2.948,1.844,2.138,2.138,0,0,0,.458-.049.272.272,0,0,0,.23-.219A.206.206,0,0,0,88.1,111.764ZM70.81,97.445c-.027.094-.085.155-.148.155-.028,0-.1-.013-.12-.133a9.752,9.752,0,0,0-.7-2.509,3.337,3.337,0,0,0-.313-.49c-.216-.3-.4-.55-.193-.894a.453.453,0,0,1,.383-.169.527.527,0,0,1,.226.048,1.907,1.907,0,0,1,.737.917A5.1,5.1,0,0,1,70.81,97.445Zm8.079,12.8a.984.984,0,0,1-.21.519,2.207,2.207,0,0,1-1.1.227c-.321-.012-.432-.057-.5-.156s.047-.327.047-.327a2.051,2.051,0,0,1,1.174-1.068.662.662,0,0,1,.477.025C79.006,109.582,78.9,110.165,78.889,110.246Zm2.2-5.052a1.461,1.461,0,0,1-.157.511.351.351,0,0,1-.328.228c-.242,0-.224-.284-.226-.323a4.225,4.225,0,0,0-.18-1.122c-.165-.362-.959-1.382-1.417-1.339a1.289,1.289,0,0,0-.637.479c-.27.35-.268.392-.352.445s-.191.025-.227-.181a1.517,1.517,0,0,1,.023-.769,3.691,3.691,0,0,1,.308-.763s.239-.552.329-.69a.683.683,0,0,1,.576-.349.778.778,0,0,1,.676.351,2.462,2.462,0,0,1,.377.558,3.893,3.893,0,0,0,.5.636,3.567,3.567,0,0,1,.7,1.321A2.585,2.585,0,0,1,81.087,105.194Z" transform="translate(-30.011 -86.726)" fill="#d2003c"/>
    </g>
    <g id="Group_6" data-name="Group 6" transform="translate(65.546 1.489)">
      <g id="Group_5" data-name="Group 5" transform="translate(22.797 24.193)">
        <path id="Path_12" data-name="Path 12" d="M148.147,119.127a.391.391,0,0,0-.293-.1.84.84,0,0,0-.1.007,5.459,5.459,0,0,1-.708.046c-.133,0-.252,0-.361-.008s-.187-.008-.274-.008a2.061,2.061,0,0,0-.383.032l-.025,0-.014.023a2.894,2.894,0,0,0-.413,1.333c.065.543.621.654,1.039.738a2.573,2.573,0,0,0,.5.062.6.6,0,0,0,.6-.3,7.667,7.667,0,0,0,.468-1.671A.179.179,0,0,0,148.147,119.127Z" transform="translate(-145.57 -119.027)" fill="#d2003c"/>
        <path id="Path_13" data-name="Path 13" d="M188.141,121.094a4,4,0,0,0-1.08-.92,4.712,4.712,0,0,1-.416-.3l-.073-.054a.442.442,0,0,0-.3-.109,1.1,1.1,0,0,0-.868.663c-.013.248.34.687.8,1.235l.1.118a1.108,1.108,0,0,0,.75.446h0a.976.976,0,0,0,.707-.3C187.936,121.722,188.309,121.335,188.141,121.094Z" transform="translate(-155.549 -119.199)" fill="#d2003c"/>
        <path id="Path_14" data-name="Path 14" d="M190.919,125.08a2.423,2.423,0,0,1-.158-.39c-.04-.182-.064-.376-.088-.564a3.173,3.173,0,0,0-.168-.809.824.824,0,0,0-.724-.465.67.67,0,0,0-.3.07c-.453.226-.719.466-.645.974a18.531,18.531,0,0,1,.534,2c.019.112.094.477.27.477a.156.156,0,0,0,.04-.006l1.3-.426a.208.208,0,0,0,.137-.117C191.188,125.655,191.051,125.362,190.919,125.08Z" transform="translate(-156.405 -119.985)" fill="#d2003c"/>
      </g>
      <path id="Path_15" data-name="Path 15" d="M170.178,117.067a7.91,7.91,0,0,0-.653-2.3l-.016-.037-.039,0c-.749.046-1.216-.562-1.665-1.147-.148-.194-.289-.377-.437-.535a7.035,7.035,0,0,0-.719-.7,2.508,2.508,0,0,1-.579-.613,7.735,7.735,0,0,1-.332-1.055c-.08-.294-.155-.571-.224-.759-.015-.038-.03-.078-.044-.119-.135-.362-.3-.812-.77-.89a6.385,6.385,0,0,0-.732-.059,2.135,2.135,0,0,1-1.707-.632,1.216,1.216,0,0,1-.008-1.3,3.846,3.846,0,0,0,.182-.545,5.212,5.212,0,0,0,.142-2.545c-.029-.115-.067-.228-.1-.338a1.814,1.814,0,0,1-.139-.885.27.27,0,0,1,.288-.16,1.484,1.484,0,0,1,.385.076c.092.026.163.04.25.06a5.883,5.883,0,0,0,1.3.173,5.794,5.794,0,0,0,2.249-.46,4.294,4.294,0,0,0,2.524-3.826c-.171-1.79-1.277-3.519-3.383-5.287l-.159-.133c-.274-.226-.6-.51-.613-.766s.648-.408,1.062-.5c.1-.022.182-.041.254-.06l.106-.028a4.657,4.657,0,0,0,1.512-.588,3.624,3.624,0,0,0,1.279-3.774.917.917,0,0,1-.022-.094c-.028-.128-.062-.289-.18-.289a.169.169,0,0,0-.113.054c-.045.04-.09.083-.136.128a3.136,3.136,0,0,1-.585.472,5.257,5.257,0,0,1-1.605.518,8.784,8.784,0,0,0-1.058.268,4.005,4.005,0,0,0-2.754,2.25,2.258,2.258,0,0,0,.253,1.766,11.9,11.9,0,0,0,1.879,2.1,6.961,6.961,0,0,1,2.449,3.548,2.139,2.139,0,0,1-1.046,2.171,3.151,3.151,0,0,1-1.635.408,4.989,4.989,0,0,1-2.282-.573,23.94,23.94,0,0,1-2.536-1.548A16.005,16.005,0,0,0,156.1,96.4a9.092,9.092,0,0,0-1.945-.546,6.133,6.133,0,0,1-2.668-.989c-.265-.173-.529-.363-.784-.549a6.957,6.957,0,0,0-2.249-1.241,4.86,4.86,0,0,0-.9-.189,2.669,2.669,0,0,1-1.261-.4c-.176-.126-.353-.256-.531-.385a14.816,14.816,0,0,0-2-1.31,15.834,15.834,0,0,0-3.782-1.18,1.941,1.941,0,0,1-1.007-.792,3.2,3.2,0,0,0-.653-.656,5.154,5.154,0,0,0-3.276-1.408c-.115,0-.233,0-.35.014a3.258,3.258,0,0,0-1.716.909c-1.243,1.088-2.579,2.055-3.871,2.991a35.736,35.736,0,0,0-5.616,4.693c-1.673,1.726-2.282,3.884-2.871,5.971-.087.308-.174.615-.264.923-.158.569-.305,1.157-.446,1.725-.767,3.079-1.56,6.153-4.636,8.15a.256.256,0,0,0,.059.461,2.54,2.54,0,0,0,2.654-.827c.8-.942,1.209-1.851,2.14-2.847.031-.031.139-.133.226-.107.064.019.094.057.064.172a3.64,3.64,0,0,1-.6,1.088,4.081,4.081,0,0,0-.615,1.118,5.727,5.727,0,0,1-1.847,2.228.917.917,0,0,0-.183.159c-.068.084-.065.121-.065.121-.02.2.134.314.445.328h0c1.724,0,2.95-1.226,4.135-2.412a.263.263,0,0,1,.2-.075.345.345,0,0,1,.19.031,3.454,3.454,0,0,1,.4.343,2.943,2.943,0,0,0,1.307.81l.01,0,.01,0a12.779,12.779,0,0,1,1.776-.16c.166,0,.328.006.469.016.629.19,1.257.426,1.863.655.43.162.872.328,1.316.48l.01,0h.011c.574-.022.987-.556,1.287-1.028a1.6,1.6,0,0,0,.009-.982,2.291,2.291,0,0,1-.067-.567.705.705,0,0,1,.407-.02,1.691,1.691,0,0,0,.4-.01.35.35,0,0,0,.265-.422,3.709,3.709,0,0,0-.69-1.371,4.37,4.37,0,0,1-.61-1.129,4.384,4.384,0,0,0-.98-1.385,3.511,3.511,0,0,1-1-1.543s-.04-.125.005-.171.165.008.165.008c.205.151.414.32.615.483a4.711,4.711,0,0,0,2.15,1.2,13.348,13.348,0,0,0,2.419.1.318.318,0,0,0,.273-.408,12.514,12.514,0,0,1-.868-2.24,6.623,6.623,0,0,1-.166-3.423.2.2,0,0,1,.189-.159.077.077,0,0,1,.029.006.381.381,0,0,1,.241.313l.012.157a7.924,7.924,0,0,0,1.233,4.53,2.742,2.742,0,0,0,1.027.877,2.49,2.49,0,0,1,.738.524,1.022,1.022,0,0,1,.1,1.009l-1.236,1.823a4,4,0,0,0-.678,1.318,4.6,4.6,0,0,0-.014,1.337l.009.1a.226.226,0,0,1-.091-.1,2.578,2.578,0,0,1-.346-2.252c.165-.381,1.17-1.806,1.465-2.276.094-.148.17-.3.09-.4a2.835,2.835,0,0,0-1.052-.451.155.155,0,0,0-.04,0,.8.8,0,0,0-.391.357l-.069.1-1.524,2.766-.034.1a1.433,1.433,0,0,0-.09.837c.083.415.214.861.31,1.186.026.09.053.181.078.271a3.41,3.41,0,0,0,.476,1.182.645.645,0,0,0,.526.231,2.319,2.319,0,0,0,.349-.036,1.493,1.493,0,0,1,.553-.014,1.191,1.191,0,0,1,.555.409,1.368,1.368,0,0,0,.6.442c.471.157.965.287,1.444.412a17.551,17.551,0,0,1,1.921.583,3.648,3.648,0,0,0,1.1.219,1.439,1.439,0,0,0,1.013-.4,2.1,2.1,0,0,0,.78-1.372c.1-.526.272-.563.655-.584a1.073,1.073,0,0,0,.393-.061,3.846,3.846,0,0,0,1.028-1.292,4.686,4.686,0,0,1,.243-.406.608.608,0,0,0,.121-.349.365.365,0,0,0-.376-.364l-.1,0s-1.627-.008-2.073,0c-.668.037-.961.678-1.194,1.246a4.067,4.067,0,0,1-.289.607,1.009,1.009,0,0,1-.947.5,3.753,3.753,0,0,1-.54-.11c-.878-.216-1.786-.439-2.156-1.31a.787.787,0,0,1,.13-.72,13.049,13.049,0,0,1,1.723-1.726,3.622,3.622,0,0,0,2.252-1.662,1.727,1.727,0,0,0,.206-.468,1.056,1.056,0,0,1,.381-.628c.143-.071.258-.046.289.078a2.46,2.46,0,0,1-.26,1.329c-.037.1-.075.192-.109.286l-.024.069.073.007a7.417,7.417,0,0,0,.748.037,14.549,14.549,0,0,0,2.6-.307,14.415,14.415,0,0,1,2.569-.3c.094,0,.189,0,.286.005.393,0,.775.034,1.145.067s.736.067,1.112.067c.133,0,.259,0,.381-.013a2.21,2.21,0,0,0,2.2-1.377,8.22,8.22,0,0,0-.075-3.56c-.013-.08-.022-.131-.023-.142l0-.032a.164.164,0,0,1,.082-.169c.1-.055.217,0,.271.135a18.529,18.529,0,0,1,.808,3.536,7.329,7.329,0,0,0,1.184,2.86,4.318,4.318,0,0,0,3.656,1.9,7.992,7.992,0,0,0,1.057-.112,2.734,2.734,0,0,1,.5-.019,6.025,6.025,0,0,1,4.851,2.413.119.119,0,0,1,.02.077.135.135,0,0,1-.183.1l-.164-.127a7.622,7.622,0,0,0-3.618-1.886,4.4,4.4,0,0,0-.8-.067,10.511,10.511,0,0,0-1.195.09,9.845,9.845,0,0,1-1.124.086,3.306,3.306,0,0,1-1.275-.229,6.382,6.382,0,0,1-3.369-3.556.2.2,0,0,0-.171-.109.257.257,0,0,0-.136.044c-.188.117-.22.181-.248.3a10.35,10.35,0,0,0,.2,1.284,3.772,3.772,0,0,0,1.668,2.774,4.2,4.2,0,0,0,2.076.928,2.583,2.583,0,0,0,.721-.032,5.859,5.859,0,0,1,1.255-.136,6.579,6.579,0,0,1,3.832,1.285,3.733,3.733,0,0,1,.544.407,2.708,2.708,0,0,0,.8.53,1.629,1.629,0,0,0,.609.116,1.765,1.765,0,0,0,1.016-.337,1.039,1.039,0,0,1,.432-.107c.414,0,.645.323.936.732a4.644,4.644,0,0,0,.644.77,1.813,1.813,0,0,0,1.309.412c.223,0,.45-.016.672-.031s.469-.02.6-.036a1.734,1.734,0,0,0,.206-.034Zm-43.9-6.162a.54.54,0,0,1-.494.215,1.04,1.04,0,0,1-.561-.156,1.345,1.345,0,0,1-.516-1.069.311.311,0,0,1,.343-.381,1.51,1.51,0,0,1,1.02.5C126.089,110.033,126.48,110.551,126.278,110.9Zm.425-6.8a.365.365,0,0,1-.44.166.893.893,0,0,1-.375-.4c-.106-.188-.193-.353-.444-.334a.2.2,0,0,0-.039,0,1.059,1.059,0,0,0-.565.265c-.09.069-.444.335-.534.411a2.748,2.748,0,0,0-1.085,1.4c-.049.206-.049.206-.067.3a.7.7,0,0,1-.238.513l-.015.007a.273.273,0,0,1-.074.011.323.323,0,0,1-.207-.08.245.245,0,0,1-.1-.193,2.939,2.939,0,0,1,.935-2.49,7.768,7.768,0,0,0,1.152-1.271c.169-.217.344-.442.525-.649.138-.139.362-.02.734.384a8.022,8.022,0,0,1,.862,1.537A.539.539,0,0,1,126.7,104.1Zm8.118-11.4c-.186.177-.38.354-.576.533a10.775,10.775,0,0,0-1.868,2.01,5.863,5.863,0,0,0-.542.982c-.018.035-.055.112-.133.112a.146.146,0,0,1-.1-.05,2.826,2.826,0,0,1,.148-1.519,6.935,6.935,0,0,1,2.37-2.944.8.8,0,0,1,.416-.12.444.444,0,0,1,.442.266A.569.569,0,0,1,134.821,92.7Z" transform="translate(-115.154 -86.749)" fill="#d2003c"/>
    </g>
  </g>
  <g id="Group_9" data-name="Group 9" transform="translate(50.552 21.861)">
    <g id="Group_8" data-name="Group 8" transform="translate(0 0)">
      <path id="Path_16" data-name="Path 16" d="M95.149,84.644A11.636,11.636,0,1,1,106.784,96.28,11.636,11.636,0,0,1,95.149,84.644Z" transform="translate(-95.149 -73.008)" fill="#fff"/>
      <path id="Path_17" data-name="Path 17" d="M110.673,88.533" transform="translate(-99.038 -76.897)" fill="#fff"/>
    </g>
    <path id="Path_18" data-name="Path 18" d="M99.006,92.816a11.46,11.46,0,0,0,18.059-10.267,12.111,12.111,0,0,0-.357-1.977,10.764,10.764,0,0,1-17.7,12.244Z" transform="translate(-96.115 -74.903)" fill="#dadada"/>
    <path id="Path_19" data-name="Path 19" d="M100.267,93.2a10.762,10.762,0,0,1-3.6-5.893c.576.6,1.69,1.741,1.69,1.741a39.206,39.206,0,0,0,2.346,3.794A2.619,2.619,0,0,1,100.267,93.2Zm6.9-19.029a10.732,10.732,0,0,1,4.016.774,5.045,5.045,0,0,1-.63,1.487,24.845,24.845,0,0,0-4.736-.062l-2.072-1.643A10.753,10.753,0,0,1,107.164,74.172Zm-.911,17.2,4.653-.126.9,2.536a17.049,17.049,0,0,1-3.876,1.593,9.66,9.66,0,0,1-3.5-1.447Zm4.883-8.069a28.181,28.181,0,0,1,2.075-3.562,20.429,20.429,0,0,1,3.207,1.866,14.286,14.286,0,0,1,.126,4.61,13.23,13.23,0,0,1-3.186,1.216S112.079,85.278,111.136,83.307ZM99.842,77.046a29.406,29.406,0,0,0-1.657,3.138c-.629.785-1.177,1.585-1.413,1.937A10.766,10.766,0,0,1,99.842,77.046Zm4.149,10.579c-2.515-.608-4.233-1.216-4.233-1.216a26.457,26.457,0,0,1-.042-4.861c1.088-.567,4.044-1.887,4.044-1.887a33.875,33.875,0,0,1,2.745,3.73C105.855,84.649,103.99,87.625,103.99,87.625Z" transform="translate(-95.528 -73.3)" fill="#001d46" fill-rule="evenodd"/>
  </g>
  <g id="Group_10" data-name="Group 10" transform="translate(26.152 63.333)">
    <path id="Path_20" data-name="Path 20" d="M74.417,128.34l2,2.45a1.568,1.568,0,0,1-.226,2.225l-3.742,3.051a1.264,1.264,0,0,1-.75.348,1.79,1.79,0,0,1-.64-.126,1.022,1.022,0,0,1,0,.646,1.86,1.86,0,0,1-.65.791l-3.593,2.929a1.57,1.57,0,0,1-2.224-.227l-2-2.451Zm-9.6,9.863,1,1.225,4.073-3.32-1-1.225Zm5.3-4.319,1,1.225,4.074-3.32-1-1.225Z" transform="translate(-62.595 -128.34)" fill="#001d46"/>
    <path id="Path_21" data-name="Path 21" d="M80.542,134.514l2.493,1.943a1.567,1.567,0,0,1,.274,2.219l-2.969,3.808a1.253,1.253,0,0,1-.653.506,1.784,1.784,0,0,1-.651.02,1.02,1.02,0,0,1,.146.629,1.859,1.859,0,0,1-.458.916L75.6,148.564a1.482,1.482,0,0,0-.271.52,5.1,5.1,0,0,0-.123.609l-1.28-1a3.726,3.726,0,0,1,.143-.566,1.763,1.763,0,0,1,.284-.537l3.508-4.5-1.246-.973-4.2,5.39-1.246-.972Zm-2.958,6.362,1.246.972,3.232-4.143-1.246-.972Z" transform="translate(-64.741 -129.886)" fill="#001d46"/>
    <path id="Path_22" data-name="Path 22" d="M87.123,141.657a2.214,2.214,0,0,1,.57-.747,2.48,2.48,0,0,1,1.681-.593,2.291,2.291,0,0,1,1.657.794,2.48,2.48,0,0,1,.593,1.68,2.239,2.239,0,0,1-.223.912l-5.616,11.734-1.426-.682,2.952-6.165-1.426-.683-2.951,6.166-1.426-.683Zm-.557,4.825,1.426.682,2.269-4.74-1.426-.682Z" transform="translate(-67.332 -131.34)" fill="#001d46"/>
    <path id="Path_23" data-name="Path 23" d="M96.271,145.087a2.218,2.218,0,0,1,.4-.848,2.468,2.468,0,0,1,.673-.607,2.51,2.51,0,0,1,.847-.324,2.291,2.291,0,0,1,1.786.431,2.476,2.476,0,0,1,.93,1.52,2.205,2.205,0,0,1-.028.938l-.4,1.683-1.537-.37.56-2.326-1.537-.37-2.83,11.755,1.536.37L97.9,151.83l-.665-.16.37-1.537,2.2.531-1.445,6a2.228,2.228,0,0,1-.4.848,2.476,2.476,0,0,1-1.52.93,2.292,2.292,0,0,1-1.786-.43,2.471,2.471,0,0,1-.93-1.521,2.206,2.206,0,0,1,.028-.938Z" transform="translate(-70.383 -132.08)" fill="#001d46"/>
    <path id="Path_24" data-name="Path 24" d="M105.746,146.754a2.216,2.216,0,0,1,.222-.912,2.479,2.479,0,0,1,1.3-1.219,2.29,2.29,0,0,1,1.836.059,2.477,2.477,0,0,1,1.219,1.3,2.208,2.208,0,0,1,.163.924l-.419,13-1.58-.05.22-6.832-1.58-.052-.22,6.833-1.58-.051Zm1.432,4.641,1.58.05.169-5.251-1.58-.052Z" transform="translate(-73.299 -132.377)" fill="#001d46"/>
    <path id="Path_25" data-name="Path 25" d="M114.339,144.332l1.473-.253q.829,2.307,1.748,4.577t1.71,4.735l.041-.008q-.1-.48-.265-1.168c-.108-.458-.213-.931-.319-1.419s-.2-.965-.3-1.433-.171-.871-.229-1.207l-.746-4.358,1.558-.268,2.572,15.034-1.474.253q-.83-2.308-1.748-4.578t-1.71-4.735l-.041.008q.12.455.274,1.156t.31,1.432q.158.731.3,1.433t.228,1.207l.746,4.359-1.558.266Z" transform="translate(-75.556 -132.145)" fill="#001d46"/>
    <path id="Path_26" data-name="Path 26" d="M123.874,143.554l-1.478.558-.558-1.479,4.436-1.675.559,1.479-1.48.558,4.83,12.789-1.478.558Z" transform="translate(-77.435 -131.501)" fill="#001d46"/>
    <path id="Path_27" data-name="Path 27" d="M129.214,139.842l1.377-.777,7.488,13.288-1.377.776Z" transform="translate(-79.282 -131.026)" fill="#001d46"/>
    <path id="Path_28" data-name="Path 28" d="M133.04,136.928l1.157-.947q1.858,1.6,3.778,3.119t3.822,3.276l.034-.027q-.328-.367-.807-.886t-.977-1.077q-.5-.558-.967-1.1t-.794-.938l-2.8-3.423,1.224-1,9.652,11.809-1.157.946q-1.858-1.6-3.778-3.119t-3.822-3.276l-.033.027q.331.337.808.871l.976,1.092q.5.56.967,1.1t.794.937l2.8,3.425-1.224,1Z" transform="translate(-80.241 -129.739)" fill="#001d46"/>
    <path id="Path_29" data-name="Path 29" d="M141.28,133.049a2.235,2.235,0,0,1-.609-.715,2.473,2.473,0,0,1-.223-1.768,2.287,2.287,0,0,1,1.126-1.452,2.515,2.515,0,0,1,.863-.277,2.487,2.487,0,0,1,.905.053,2.21,2.21,0,0,1,.843.411l8.508,6.6a2.212,2.212,0,0,1,.609.714,2.472,2.472,0,0,1,.223,1.768,2.294,2.294,0,0,1-1.125,1.453,2.475,2.475,0,0,1-1.769.223,2.228,2.228,0,0,1-.844-.411Zm1.414-2.9-.968,1.249,9.555,7.409.969-1.249Z" transform="translate(-82.078 -128.46)" fill="#001d46"/>
  </g>
</svg>
