<?xml version="1.0" encoding="utf-8"?>
<!-- Generator: Adobe Illustrator 26.0.2, SVG Export Plug-In . SVG Version: 6.00 Build 0)  -->
<svg version="1.1" id="Camada_1" xmlns="http://www.w3.org/2000/svg" xmlns:xlink="http://www.w3.org/1999/xlink" x="0px" y="0px"
	 viewBox="0 0 322.7 480.1" style="enable-background:new 0 0 322.7 480.1;" xml:space="preserve">
<style type="text/css">
	.st0{fill:#FACF00;}
	.st1{fill:#FFFFFF;}
	.st2{fill:#1F1A17;}
</style>
<g>
	<path class="st0" d="M160.8,0c0.5,0.9,0.8,2,1.1,3c2.9,9.1,5.9,18.2,8.9,27.3c10.7,0,21.3,0,32,0c-8.6,6.3-17.2,12.6-25.8,18.8
		c3.2,10.2,6.7,20.3,9.8,30.5c-8.6-6.3-17.2-12.5-25.8-18.8c-8.6,6.3-17.3,12.5-25.8,18.8c0.1-0.5,0.2-0.9,0.3-1.3
		c3.2-9.7,6.3-19.4,9.5-29.2c-8.6-6.2-17.1-12.5-25.8-18.7c1.2-0.3,2.4-0.1,3.6-0.2c9.4,0,18.9,0,28.3,0
		C154.3,20.2,157.6,10.1,160.8,0"/>
	<path class="st1" d="M161.3,91.1c8.1,12.3,18.7,22.8,30.2,31.8c15.8,12.2,34.2,21.1,53.8,24.9c18.9,3.8,38.6,2.7,57.2-2.2
		c5.2-1.2,10.3-3.1,15.5-4.6c2.7,12.6,3.8,25.5,4.3,38.3c0.1,1.7,0.1,3.4,0.4,5.1v9.5c-0.6,7-0.6,14.1-1.3,21.2
		c-3.7,46-17.2,91.1-39.2,131.6c-3.4,6.7-7.5,13-11.3,19.5c-4.9,7.4-9.6,14.9-15,21.9c-4.3,6.1-9,11.8-13.7,17.5
		c-4,5.1-8.5,9.8-12.8,14.6c-3.5,4.1-7.5,7.8-11.3,11.7c-6.4,6.7-13.5,12.8-20.2,19.1c-4.2,3.6-8.5,7.1-12.7,10.6
		c-7.6,6.5-16.1,12.1-23.8,18.5h-0.5l-0.1-0.4c-8.1-6.4-16.6-12.2-24.4-18.9c-5-4.3-10.3-8.3-15.1-12.9c-5-4.7-10.3-9.2-15.1-14.2
		c-4.5-4.6-9.2-9.1-13.5-14c-3.3-3.7-6.6-7.2-9.8-10.9c-5.6-7-11.5-13.8-16.6-21.2c-5.2-6.8-9.8-14-14.5-21.2
		c-2.3-3.7-4.5-7.5-6.7-11.2c-26.3-45.4-41.9-97-44.6-149.4c-0.3-3.8-0.1-7.5-0.5-11.3v-10.4l0.1-1.5c0.4-13.9,1.5-27.9,4.4-41.5
		c7.9,2.5,15.7,5.1,23.9,6.5c16.1,3.2,32.8,3.4,48.9,0.2c21.2-4.1,41-14.3,57.6-28C145,111.4,154.2,102,161.3,91.1 M161.3,95.9
		c-3.8,5.5-8.3,10.5-12.9,15.3c-11.9,12.1-25.7,22.3-41,29.5c-16.2,7.7-34,11.9-51.9,12.1c-16.6,0.3-33.1-3-48.8-8.3
		c-1.8,9.5-2.8,19.2-3.4,28.9c-3.1,58.2,10.4,116.9,37.5,168.4c16.3,31.2,37.6,59.6,62.1,84.8c17.9,18.4,37.6,35,58.4,50
		c36.4-26.2,69.3-57.5,95.4-94.1c18.1-25.3,32.9-53,43.5-82.3c13.9-38.6,20.7-79.8,19.4-120.8c-0.5-11.7-1.4-23.4-3.7-34.9
		c-18.6,6.5-38.5,9.6-58.2,7.8c-18.9-1.6-37.4-7.9-53.7-17.7C187.4,124.7,172.7,111.5,161.3,95.9 M161.3,116.2
		c7,8.4,15.3,15.6,24.1,21.9c15,10.6,31.9,18.3,49.8,22.6c20.9,5.1,42.9,5.2,64.1,1.4c2.2-0.3,4.3-0.9,6.5-1.2
		c3.2,21.5,2.8,43.4,0.5,65c-4.4,39.2-16.4,77.4-35,112.2c-13.9,26.2-31.4,50.3-51.5,72.1c-17.8,19.2-37.5,36.5-58.5,52
		c-23.2-17.2-44.9-36.5-64-58.1c-23.2-26.2-42.6-55.9-56.7-88c-8.5-19.5-15.1-39.8-19.5-60.6c-5.6-26.4-7.9-53.6-5.9-80.5
		c0.4-4.7,0.9-9.4,1.6-14c19.9,4.3,40.6,5.3,60.7,1.9c18.4-3,36.2-9.8,52.1-19.6C141.4,135.7,152.4,126.9,161.3,116.2 M132.5,150.2
		c-15.6,9.9-33.2,16.8-51.4,20c-19.1,3.4-38.8,2.8-57.8-1.1c-1.5,10.6-1.8,21.4-1.7,32.2c0.3,13.4,1.6,26.7,3.7,39.9
		c90.6,0,181.3,0,271.9,0c2.3-13.5,3.5-27.1,3.8-40.8c0.1-10.5-0.2-20.9-1.7-31.3c-12.3,2.5-24.9,3.7-37.5,3.3
		c-18.6-0.6-37.1-4.9-54-12.7c-17.5-8.1-33.7-19.3-46.5-33.7C153.1,135.5,143.1,143.4,132.5,150.2 M27.2,251.2
		c8.1,40.5,24.8,79.2,48.2,113.2c0-37.7,0-75.5,0-113.2C59.3,251.2,43.2,251.2,27.2,251.2 M86.6,251.2c0,42.9,0,85.7,0,128.6
		c2.5,3.7,5.5,7,8.3,10.4c10.5,12.5,21.9,24.4,34,35.4c0-58.1,0-116.2,0-174.3C114.9,251.2,100.8,251.2,86.6,251.2 M140.2,251.2
		c0,61.4,0,122.9,0,184.3c6.8,5.8,13.9,11.3,21,16.7c7.3-5.3,14.3-11,21.3-16.8c0.1-61.4,0-122.8,0-184.2
		C168.5,251.2,154.4,251.2,140.2,251.2 M193.8,251.2c0.1,58.1,0,116.1,0,174.2c15.4-14,29.6-29.3,42.3-45.7c0-42.8,0-85.7,0-128.5
		C222.1,251.2,208,251.1,193.8,251.2 M247.5,251.2c0,37.5,0,75.1,0,112.6c2.1-2.6,3.8-5.5,5.7-8.3c20.3-31.8,34.9-67.3,42.3-104.3
		C279.5,251.2,263.5,251.2,247.5,251.2 M69.2,182.5c7.3-2.7,15.7-1.8,22.5,1.7c2.8,1.5,5.5,3.4,7.2,6.2c-3.5,2-7,4.3-10.5,6.4
		c-1.7-3.1-5.4-4.4-8.7-4.8c-3.3-0.4-6.9,0.3-9.3,2.7c-3.1,3.1-4.1,7.8-4,12.1c0.1,4.2,1.1,8.8,4.4,11.8c2.6,2.4,6.5,2.9,10,2.2
		c3.3-0.6,6.7-2.6,7.9-5.9c3.6,2.2,7.2,4.4,10.8,6.6c-2.7,4.8-7.5,8-12.7,9.5c-6.9,2-14.6,1.6-20.8-2c-5.4-3-9.3-8.3-11-14.2
		c-2.1-7.2-1.4-15.3,2.3-21.9C59.8,188.2,64.1,184.4,69.2,182.5 M131.5,231.1c6.2-16.4,12.2-32.8,18.4-49.1c4.3,0.1,8.6,0,12.9,0
		c6.1,16.4,12.2,32.7,18.4,49.1c-4.4,0.1-8.9,0-13.3,0c-1-2.9-2-5.9-3-8.8c-5.7,0-11.4,0-17.1,0c-1.1,2.9-2.1,5.9-3.1,8.8
		C140.3,231.1,135.9,231.1,131.5,231.1 M150.7,212.7c3.7,0.1,7.4,0,11.1,0.1c-1.8-5.7-3.7-11.4-5.5-17
		C154.3,201.3,152.7,207.1,150.7,212.7 M212.9,182c6.3,0,12.6,0,18.8,0c2.9,10.9,5.6,21.8,8.6,32.6c2.8-10.9,5.6-21.8,8.5-32.6
		c6.2,0,12.5,0,18.8,0c0.1,16.4,0,32.7,0.1,49.1c-4,0.1-8.1,0.1-12.1,0c0-11.3-0.1-22.5-0.1-33.8c0-1,0-1.9-0.1-2.9
		c-3.5,12.2-6.8,24.4-10.2,36.7c-3.3,0.1-6.6,0-9.8,0c-3-10.8-6-21.5-9-32.3c-0.5-1.5-0.7-3-1.4-4.4c0,12.2,0,24.5,0,36.7
		c-4,0-8,0-12,0L212.9,182"/>
	<path class="st2" d="M161.4,95.6c11.5,15.6,26.2,28.8,42.7,38.8c16.3,9.8,34.8,16,53.7,17.7c19.7,1.8,39.6-1.4,58.3-7.8
		c2.3,11.5,3.2,23.2,3.7,34.9c1.3,41-5.4,82.2-19.4,120.8c-10.6,29.3-25.4,57-43.5,82.3c-26.1,36.5-59.1,67.9-95.5,94.1
		c-20.8-15-40.5-31.6-58.4-50c-24.6-25.1-45.8-53.6-62.2-84.8C13.7,290.1,0.2,231.3,3.3,173.1c0.6-9.7,1.5-19.3,3.4-28.9
		c15.7,5.3,32.2,8.5,48.8,8.3c17.9-0.2,35.8-4.4,51.9-12.1c15.3-7.3,29.2-17.5,41.1-29.5C153.1,106.2,157.6,101.1,161.4,95.6
		 M161.4,116c-8.9,10.7-20,19.5-31.8,26.9c-15.9,9.8-33.7,16.5-52.1,19.6c-20.1,3.4-40.8,2.3-60.7-1.9c-0.8,4.6-1.3,9.3-1.6,14
		c-2,27,0.4,54.1,5.9,80.6c4.4,20.8,11,41.1,19.5,60.6c14,32.1,33.5,61.8,56.7,88c19.1,21.7,40.8,41,64.1,58.1
		c21.1-15.5,40.8-32.8,58.6-52c20.1-21.7,37.6-45.9,51.6-72.1c18.6-34.8,30.6-73,35-112.2c2.3-21.6,2.7-43.5-0.5-65
		c-2.2,0.3-4.4,0.9-6.5,1.2c-21.2,3.8-43.2,3.7-64.1-1.4c-17.8-4.3-34.8-12-49.8-22.6C176.7,131.5,168.4,124.3,161.4,116 M132.5,150
		c10.6-6.8,20.6-14.7,28.9-24.2c12.8,14.4,29.1,25.7,46.6,33.7c16.9,7.7,35.4,12,54,12.7c12.6,0.5,25.2-0.7,37.5-3.3
		c1.5,10.4,1.8,20.8,1.7,31.3c-0.3,13.7-1.5,27.3-3.8,40.8c-90.7,0-181.4,0-272.1,0c-2.1-13.2-3.5-26.5-3.7-39.9
		c-0.2-10.7,0.1-21.5,1.7-32.2c19,3.9,38.7,4.5,57.8,1.1C99.3,166.8,116.9,159.8,132.5,150 M69.2,182.3c-5.1,1.9-9.5,5.6-12.1,10.3
		c-3.7,6.6-4.4,14.7-2.3,21.9c1.7,5.9,5.7,11.1,11,14.2c6.3,3.6,14,4,20.9,2c5.2-1.5,10.1-4.7,12.7-9.5c-3.6-2.2-7.2-4.4-10.8-6.6
		c-1.2,3.3-4.5,5.3-7.9,5.9c-3.4,0.7-7.3,0.2-10-2.2c-3.2-3-4.3-7.5-4.4-11.8c0-4.3,0.9-8.9,4.1-12.1c2.4-2.4,6-3.1,9.3-2.7
		c3.4,0.4,7,1.7,8.7,4.8c3.5-2.1,7-4.3,10.5-6.4c-1.6-2.8-4.4-4.7-7.2-6.2C84.9,180.5,76.5,179.6,69.2,182.3 M131.6,230.8
		c4.4,0,8.8,0,13.1,0c1-2.9,2.1-5.9,3.1-8.8c5.7,0,11.4,0,17.1,0c1,2.9,2,5.9,3,8.8c4.4,0,8.9,0,13.3,0
		c-6.1-16.4-12.2-32.7-18.4-49.1c-4.3,0-8.6,0.1-12.9,0C143.8,198,137.8,214.5,131.6,230.8 M213,181.7v49.1c4,0,8,0,12,0
		c0-12.2,0-24.5,0-36.7c0.7,1.4,0.9,2.9,1.4,4.4c3,10.8,6.1,21.5,9.1,32.3c3.3,0,6.6,0.1,9.8,0c3.3-12.2,6.7-24.5,10.2-36.7
		c0.1,1,0.1,1.9,0.1,2.9c0,11.3,0.1,22.5,0.1,33.8c4,0.1,8.1,0.1,12.1,0c-0.1-16.4,0.1-32.7-0.1-49.1c-6.3,0.1-12.5,0-18.8,0
		c-2.9,10.9-5.6,21.8-8.5,32.6c-3-10.8-5.7-21.7-8.6-32.6C225.6,181.7,219.3,181.7,213,181.7 M150.8,212.5c2-5.6,3.6-11.4,5.6-17
		c1.8,5.7,3.7,11.4,5.5,17C158.2,212.5,154.5,212.6,150.8,212.5 M27.2,251c16.1,0,32.1,0,48.2,0c0,37.7,0,75.5,0,113.2
		C51.9,330.2,35.2,291.5,27.2,251 M86.7,251c14.1,0,28.3-0.1,42.4,0c-0.1,58.1,0,116.2,0,174.4c-12.2-11-23.5-22.8-34.1-35.4
		c-2.8-3.5-5.8-6.8-8.3-10.5C86.6,336.7,86.7,293.8,86.7,251 M140.3,251c14.1,0,28.3,0,42.4,0c0,61.4,0,122.8,0,184.3
		c-7,5.8-14,11.5-21.3,16.8c-7.1-5.4-14.2-10.9-21-16.7C140.3,373.9,140.3,312.4,140.3,251 M193.9,251c14.1-0.1,28.3,0,42.4,0
		c0,42.8,0,85.7,0,128.5c-12.7,16.4-27,31.7-42.3,45.7C193.9,367.2,194,309.1,193.9,251 M247.6,251c16,0,32,0,48,0
		c-7.4,37-22,72.6-42.3,104.3c-1.9,2.8-3.5,5.7-5.7,8.3C247.6,326.1,247.6,288.5,247.6,251"/>
</g>
</svg>
